<?xml version="1.0" encoding="UTF-8" standalone="no"?>
<!DOCTYPE svg PUBLIC "-//W3C//DTD SVG 1.1//EN" "http://www.w3.org/Graphics/SVG/1.1/DTD/svg11.dtd">
<svg width="100%" height="100%" viewBox="0 0 126 122" version="1.1" xmlns="http://www.w3.org/2000/svg" xmlns:xlink="http://www.w3.org/1999/xlink" xml:space="preserve" xmlns:serif="http://www.serif.com/" style="fill-rule:evenodd;clip-rule:evenodd;">
    <g id="Directionals" transform="matrix(0.965774,0,0,0.929204,-8.38993,-6.2784)">
        <rect x="8.687" y="6.757" width="129.73" height="130.888" style="fill:none;"/>
        <clipPath id="_clip1">
            <rect x="8.687" y="6.757" width="129.73" height="130.888"/>
        </clipPath>
        <g clip-path="url(#_clip1)">
            <g transform="matrix(-1.51479,0,0,1.57441,542.006,-129.515)">
                <g id="Directionals1" serif:id="Directionals">
                    <g id="_360" serif:id="360">
                        <g transform="matrix(2.01118,0,0,2.01118,-847.576,-115.793)">
                            <circle cx="575" cy="121" r="15.374" style="fill:rgb(215,21,24);"/>
                        </g>
                        <g transform="matrix(1.84028,0,0,2.05378,-750.496,-118.332)">
                            <path d="M560.868,109.602C565.391,104.937 571.381,103.958 575.823,103.892C585.976,103.741 593.323,112.049 593.463,119.835C593.592,127.067 586.957,135.663 575.823,135.694C566.257,135.721 558.842,129.261 558.949,121.463L575.823,121.463L575.823,118.207L554.592,118.207C554.592,131.074 562.705,139.177 575.804,139.191C591.289,139.209 597.087,127.074 597.219,119.835C597.396,110.061 587.557,100.365 575.823,100.352C569.319,100.344 562.238,102.487 557.279,109.09L554.874,108.747L557.954,115.641L563.269,109.944L560.868,109.602Z" style="fill:white;stroke:black;stroke-width:0.66px;"/>
                        </g>
                    </g>
                </g>
            </g>
        </g>
    </g>
</svg>
