<?xml version="1.0" encoding="UTF-8" standalone="no"?>
<!DOCTYPE svg PUBLIC "-//W3C//DTD SVG 1.1//EN" "http://www.w3.org/Graphics/SVG/1.1/DTD/svg11.dtd">
<svg width="100%" height="100%" viewBox="0 0 95 69" version="1.1" xmlns="http://www.w3.org/2000/svg" xmlns:xlink="http://www.w3.org/1999/xlink" xml:space="preserve" xmlns:serif="http://www.serif.com/" style="fill-rule:evenodd;clip-rule:evenodd;stroke-linecap:round;stroke-linejoin:round;stroke-miterlimit:1;">
    <g id="Artboard1" transform="matrix(0.97294,0,0,0.963813,-25.384,-41.4699)">
        <rect x="26.09" y="43.027" width="97.128" height="70.886" style="fill:none;"/>
        <g transform="matrix(2.02812,0,0,2.02542,-1186.68,-724.467)">
            <g id="Icons">
                <g id="EX">
                    <g transform="matrix(1.19846,0,-0.556122,0.973214,429.797,129.099)">
                        <path d="M300.434,264.438C300.434,261.105 298.261,258.399 295.583,258.399L274.236,258.399C271.558,258.399 269.384,261.105 269.384,264.438L269.384,273.184C269.384,276.517 271.558,279.223 274.236,279.223L295.583,279.223C298.261,279.223 300.434,276.517 300.434,273.184L300.434,264.438Z" style="fill:rgb(0,116,216);stroke:rgb(9,170,255);stroke-width:3.41px;"/>
                    </g>
                    <g transform="matrix(1.49229,0,-0.287667,1.49229,231.244,182.966)">
                        <path d="M293.274,153.626L293.256,153.626L293.28,153.598L293.542,152.372C293.59,152.144 293.514,151.884 293.339,151.679C293.163,151.474 292.911,151.351 292.667,151.351L290.629,151.351C290.629,151.351 290.717,150.945 290.717,150.945C290.717,150.945 292.953,150.945 292.953,150.945C293.249,150.945 293.481,150.764 293.541,150.487L293.875,148.94C293.925,148.712 293.849,148.451 293.673,148.246C293.498,148.04 293.246,147.917 293.001,147.917L291.354,147.917C291.354,147.917 291.441,147.505 291.441,147.505C291.441,147.505 293.884,147.505 293.884,147.505C294.181,147.505 294.414,147.324 294.473,147.046L294.801,145.505C294.85,145.276 294.774,145.016 294.598,144.812C294.423,144.607 294.171,144.484 293.927,144.484L289.087,144.484C288.79,144.484 288.557,144.665 288.498,144.943L286.711,153.345C286.662,153.574 286.739,153.834 286.914,154.039C287.09,154.244 287.341,154.366 287.585,154.366L292.624,154.366C292.921,154.366 293.154,154.185 293.213,153.908L293.274,153.626ZM293.742,146.765L290.806,146.765L290.408,148.657L293.144,148.657L292.81,150.204L290.085,150.204L289.675,152.091L292.81,152.091L292.482,153.626L287.443,153.626L289.23,145.224L294.07,145.224L293.742,146.765Z" style="fill:rgb(0,116,216);"/>
                        <path d="M292.571,153.209L292.51,153.493C292.511,153.628 292.551,153.77 292.63,153.903C292.796,154.183 293.1,154.366 293.399,154.366L295.742,154.366C295.943,154.366 296.119,154.283 296.229,154.136L297.674,152.2L298.154,153.718C298.271,154.089 298.637,154.366 299.006,154.366L301.15,154.366C301.371,154.366 301.561,154.266 301.666,154.093C301.772,153.92 301.783,153.692 301.695,153.474L300.19,149.716L303.416,145.752C303.587,145.541 303.591,145.222 303.425,144.944C303.258,144.665 302.955,144.484 302.658,144.484L300.449,144.484C300.25,144.484 300.076,144.565 299.966,144.71L298.563,146.551L298.161,145.153C298.051,144.773 297.68,144.484 297.303,144.484L295.094,144.484C294.873,144.484 294.684,144.584 294.578,144.757C294.472,144.93 294.461,145.157 294.548,145.375L296.012,149.047C296.012,149.047 292.645,153.094 292.645,153.094C292.615,153.129 292.59,153.168 292.571,153.209ZM297.812,150.552C297.853,150.453 297.887,150.374 297.914,150.316L297.937,150.316C297.937,150.351 297.939,150.397 297.943,150.453C297.947,150.51 297.952,150.569 297.958,150.629C297.964,150.69 297.972,150.749 297.981,150.808C297.991,150.866 298.004,150.917 298.019,150.96L298.863,153.626L301.008,153.626L299.344,149.472L302.801,145.224L300.592,145.224L298.588,147.855C298.553,147.902 298.52,147.953 298.491,148.01C298.462,148.067 298.434,148.124 298.406,148.183C298.379,148.241 298.355,148.295 298.336,148.344C298.316,148.393 298.301,148.433 298.289,148.464L298.26,148.464C298.26,148.429 298.259,148.384 298.257,148.329C298.255,148.275 298.251,148.216 298.245,148.154C298.239,148.091 298.231,148.03 298.222,147.969C298.212,147.908 298.201,147.855 298.189,147.808L297.445,145.224L295.236,145.224L296.859,149.296L293.256,153.626L295.6,153.626L297.615,150.925C297.661,150.861 297.703,150.792 297.739,150.718L298.03,151.006C297.987,150.925 297.898,150.751 297.812,150.552Z" style="fill:rgb(0,116,216);"/>
                        <g transform="matrix(12,0,0,12,287.156,153.626)">
                            <path d="M0.549,-0.572L0.304,-0.572L0.271,-0.414L0.499,-0.414L0.471,-0.285L0.244,-0.285L0.21,-0.128L0.471,-0.128L0.444,-0L0.024,-0L0.173,-0.7L0.576,-0.7L0.549,-0.572Z" style="fill:white;fill-rule:nonzero;"/>
                        </g>
                        <g transform="matrix(12,0,0,12,293.906,153.626)">
                            <path d="M0.453,-0.346L0.592,-0L0.413,-0L0.343,-0.222C0.341,-0.226 0.34,-0.23 0.34,-0.235C0.339,-0.24 0.338,-0.245 0.338,-0.25C0.337,-0.255 0.337,-0.26 0.336,-0.264C0.336,-0.269 0.336,-0.273 0.336,-0.276L0.334,-0.276C0.331,-0.27 0.328,-0.263 0.324,-0.252C0.32,-0.242 0.315,-0.233 0.309,-0.225L0.141,-0L-0.054,-0L0.246,-0.361L0.111,-0.7L0.295,-0.7L0.357,-0.485C0.358,-0.481 0.359,-0.476 0.36,-0.471C0.36,-0.466 0.361,-0.461 0.362,-0.456C0.362,-0.451 0.362,-0.446 0.363,-0.441C0.363,-0.437 0.363,-0.433 0.363,-0.43L0.365,-0.43C0.366,-0.433 0.368,-0.436 0.369,-0.44C0.371,-0.444 0.373,-0.449 0.375,-0.454C0.377,-0.458 0.38,-0.463 0.382,-0.468C0.385,-0.473 0.387,-0.477 0.39,-0.481L0.557,-0.7L0.741,-0.7L0.453,-0.346Z" style="fill:white;fill-rule:nonzero;"/>
                        </g>
                    </g>
                </g>
            </g>
        </g>
    </g>
</svg>
