<?xml version="1.0" encoding="UTF-8" standalone="no"?>
<!DOCTYPE svg PUBLIC "-//W3C//DTD SVG 1.1//EN" "http://www.w3.org/Graphics/SVG/1.1/DTD/svg11.dtd">
<svg width="100%" height="100%" viewBox="0 0 141 82" version="1.1" xmlns="http://www.w3.org/2000/svg" xmlns:xlink="http://www.w3.org/1999/xlink" xml:space="preserve" xmlns:serif="http://www.serif.com/" style="fill-rule:evenodd;clip-rule:evenodd;stroke-linejoin:round;stroke-miterlimit:2;">
    <g id="Artboard1" transform="matrix(0.938224,0,0,0.545689,0,0)">
        <rect x="0" y="0" width="150" height="150" style="fill:none;"/>
        <g transform="matrix(1.1007,0,0,1.89247,-553.747,-772.813)">
            <g id="Moves">
                <g id="mk">
                    <g transform="matrix(0.912648,0,0,0.971983,505.389,375.24)">
                        <rect x="44.68" y="43.292" width="98.47" height="68.323" style="fill:rgb(80,210,255);"/>
                    </g>
                    <g transform="matrix(0.461132,0,0,0.461132,272.869,215.363)">
                        <path d="M548,454L572,439C572,439 603,435 618,439C633,443 662.171,467.198 666,494C671,529 663.15,559.71 621,575C604.556,580.965 584,578 584,578L573,583L564,575C564,575 550,571 539,554C530.979,541.604 522.052,527.003 522,510C521.941,490.974 519,477 519,477L518,462L537,448C537,448 543,450 548,454Z"/>
                        <path d="M548.177,448.922C543.253,445.642 538.332,444.003 538.332,444.003L534.501,444.608L515.501,458.608L513.796,462.28L514.796,477.28L514.877,477.868C514.877,477.868 517.73,491.48 517.787,510.013C517.842,527.869 527.04,543.271 535.463,556.289C545.645,572.024 558.267,577.446 561.852,578.726C561.85,578.725 570.201,586.149 570.201,586.149L574.743,586.835L584.668,582.324C589.545,582.863 607.58,584.35 622.437,578.96C640.279,572.488 652.257,563.324 659.937,552.383C671.416,536.03 673.334,515.549 670.171,493.404C668.135,479.153 659.465,465.537 649.206,455.009C638.926,444.458 627.079,437.061 619.085,434.929C603.556,430.788 571.461,434.822 571.461,434.822L569.767,435.427L548.177,448.922L548.177,448.922ZM545.368,457.29L550.233,457.573L573.446,443.064C578.557,442.442 603.94,439.611 616.915,443.071C623.921,444.939 634.16,451.641 643.172,460.889C652.206,470.161 660.037,482.045 661.829,494.596C664.666,514.451 663.333,532.88 653.041,547.542C646.207,557.278 635.441,565.28 619.563,571.04C604.026,576.676 584.601,573.83 584.601,573.83L582.257,574.165L573.751,578.031C573.751,578.031 566.799,571.851 566.799,571.851L565.157,570.949C565.157,570.949 552.541,567.173 542.537,551.711C534.918,539.937 526.263,526.137 526.213,509.987C526.158,492.118 523.614,478.594 523.184,476.434C523.185,476.439 522.357,464.023 522.357,464.023C522.357,464.023 537.633,452.766 537.633,452.766C539.575,453.599 542.64,455.107 545.368,457.29Z" style="fill:white;"/>
                        <path d="M643,464L607,496L587,498L561,487L548,465L542,461L536,462L537,473L545,495L554,510L567,520L577,532L590,559L661,501L657,483L649,470L643,464Z" style="fill:white;"/>
                        <path d="M527,466L531,463L534,480L539,495L548,511L559,521L566,526L575,541L587,563L573,572L560,548L566,541L565,535L556,525L545,519L536,502L531,484L527,466Z" style="fill:white;"/>
                    </g>
                    <g transform="matrix(3.66153,0,0,3.66153,432.251,396.471)">
                        <g transform="matrix(12,0,0,12,43.7694,18.3603)">
                            <path d="M0.525,-0L0.669,-0L0.668,-0.6L0.551,-0.6L0.365,-0.343L0.179,-0.6L0.062,-0.6L0.061,-0L0.205,-0L0.205,-0.332L0.335,-0.159L0.396,-0.159L0.525,-0.331L0.525,-0Z" style="fill-rule:nonzero;"/>
                        </g>
                    </g>
                </g>
            </g>
        </g>
    </g>
</svg>
