<?xml version="1.0" encoding="UTF-8" standalone="no"?>
<!DOCTYPE svg PUBLIC "-//W3C//DTD SVG 1.1//EN" "http://www.w3.org/Graphics/SVG/1.1/DTD/svg11.dtd">
<svg width="100%" height="100%" viewBox="0 0 126 122" version="1.1" xmlns="http://www.w3.org/2000/svg" xmlns:xlink="http://www.w3.org/1999/xlink" xml:space="preserve" xmlns:serif="http://www.serif.com/" style="fill-rule:evenodd;clip-rule:evenodd;stroke-linejoin:round;stroke-miterlimit:2;">
    <g id="Directionals" transform="matrix(0.965774,0,0,0.929204,-8.38993,-6.2784)">
        <rect x="8.687" y="6.757" width="129.73" height="130.888" style="fill:none;"/>
        <g transform="matrix(0.703607,0,0,0.731299,-208.796,-303.013)">
            <g id="Directionals1" serif:id="Directionals">
                <g id="punch">
                    <path d="M320,493C320,493 347.333,463.5 359,455C368.556,448.038 390,442 390,442L406,439L422,431L432,435L437,445L465,474C465,474 475,485 475,497C475,509 485,543 449,571C413,599 368,584 350,561C332,538 329,505 329,505L320,493Z"/>
                    <path d="M316.91,490.137L316.63,495.528L324.941,506.609C325.707,512.931 330.061,542.358 346.682,563.596C365.758,587.971 413.435,603.999 451.586,574.325C489.274,545.013 479.213,509.563 479.213,497C479.213,483.547 468.117,471.166 468.117,471.166L468.031,471.074L440.479,442.538C440.479,442.538 435.768,433.116 435.768,433.116L433.565,431.088L423.565,427.088L420.116,427.232L404.644,434.968C404.644,434.968 389.224,437.859 389.224,437.859L388.858,437.945C388.858,437.945 366.497,444.325 356.519,451.595C344.678,460.222 316.91,490.137 316.91,490.137ZM325.488,493.295C332.332,486.004 352.071,465.261 361.481,458.405C370.098,452.127 388.858,446.702 390.951,446.109C390.961,446.106 406.776,443.141 406.776,443.141L407.884,442.768L422.192,435.614C422.192,435.614 428.948,438.317 428.948,438.317C428.948,438.317 433.232,446.884 433.232,446.884L433.969,447.926L461.927,476.882C462.631,477.662 470.787,486.905 470.787,497C470.787,508.438 480.727,540.987 446.414,567.675C412.565,594.001 370.242,580.029 353.318,558.404C336.035,536.32 333.196,504.619 333.196,504.619L332.37,502.472L325.488,493.295Z" style="fill:white;"/>
                    <g transform="matrix(3.62222,0,0,3.62222,-832.368,-1117.03)">
                        <path d="M333,462L351.724,450.172L350.724,448.487L344.172,452.552L342,448.487L355,441L357,444L357,453L354,456L355.724,459.724L355.933,461.172L345.307,467.656L344,467L341,463L337,465L335,465L333,462Z" style="fill:white;"/>
                    </g>
                    <path d="M332,495L366,544L384,532L352,480.369L332,495Z" style="fill:white;"/>
                    <path d="M358,477.25L376,466L398.928,504L398.928,510L406,521L391,531L358,477.25Z" style="fill:white;"/>
                    <path d="M382,463L402,453L423,489L406,501.5L382,463Z" style="fill:white;"/>
                    <path d="M429,488L445,478.25L425,442L409,450L429,488Z" style="fill:white;"/>
                </g>
            </g>
        </g>
    </g>
</svg>
