<?xml version="1.0" encoding="UTF-8" standalone="no"?>
<!DOCTYPE svg PUBLIC "-//W3C//DTD SVG 1.1//EN" "http://www.w3.org/Graphics/SVG/1.1/DTD/svg11.dtd">
<svg width="100%" height="100%" viewBox="0 0 95 69" version="1.1" xmlns="http://www.w3.org/2000/svg" xmlns:xlink="http://www.w3.org/1999/xlink" xml:space="preserve" xmlns:serif="http://www.serif.com/" style="fill-rule:evenodd;clip-rule:evenodd;stroke-linecap:round;stroke-linejoin:round;stroke-miterlimit:1;">
    <g id="Artboard1" transform="matrix(0.97294,0,0,0.963813,-25.384,-41.4699)">
        <rect x="26.09" y="43.027" width="97.128" height="70.886" style="fill:none;"/>
        <g transform="matrix(0.519441,0,0,0.497398,-305.767,-157.581)">
            <g id="Icons">
                <g id="V3">
                    <g>
                        <g transform="matrix(1.01492,0,0,1,69.337,86.5797)">
                            <path d="M645.593,445.846L574.073,344.42L567.752,339.028L567.38,325.827L573.515,321.365L620.927,321.923L645.284,358.691L669.577,322.018L716.989,321.46L723.125,325.922L722.753,339.123L716.431,344.515L645.593,445.846Z" style="fill:rgb(238,0,0);stroke:rgb(255,89,82);stroke-width:7.5px;"/>
                        </g>
                        <g transform="matrix(0.774651,0,0,1,148.575,0)">
                            <path d="M750.625,541.52L868.799,541.52L868.799,522.93L856.886,522.93L856.886,480.099L868.799,480.099L868.799,461.509L750.625,461.509L750.625,480.099L762.726,480.099L762.726,522.93L750.625,522.93L750.625,541.52ZM799.201,522.93L799.201,480.099L784.096,480.099L784.096,522.93L799.201,522.93ZM835.515,522.93L835.515,480.099L820.572,480.099L820.572,522.93L835.515,522.93Z" style="fill:white;stroke:rgb(238,0,0);stroke-width:6.98px;"/>
                        </g>
                    </g>
                </g>
            </g>
        </g>
    </g>
</svg>
