<?xml version="1.0" encoding="UTF-8" standalone="no"?>
<!DOCTYPE svg PUBLIC "-//W3C//DTD SVG 1.1//EN" "http://www.w3.org/Graphics/SVG/1.1/DTD/svg11.dtd">
<svg width="100%" height="100%" viewBox="0 0 95 69" version="1.1" xmlns="http://www.w3.org/2000/svg" xmlns:xlink="http://www.w3.org/1999/xlink" xml:space="preserve" xmlns:serif="http://www.serif.com/" style="fill-rule:evenodd;clip-rule:evenodd;stroke-linecap:round;stroke-linejoin:round;stroke-miterlimit:1;">
    <g id="Artboard1" transform="matrix(0.97294,0,0,0.963813,-25.384,-41.4699)">
        <rect x="26.09" y="43.027" width="97.128" height="70.886" style="fill:none;"/>
        <g transform="matrix(1.97634,0,0,2.04733,-1160.78,-569.556)">
            <g id="Icons">
                <g id="Vx2">
                    <g transform="matrix(1,0,0.0626287,1.06046,273.03,161.92)">
                        <path d="M366,131L333,131L320,150L354,150L366,131Z" style="fill:rgb(238,0,0);stroke:rgb(255,89,82);stroke-width:2.6px;"/>
                    </g>
                    <g transform="matrix(1.49229,0,0,1.49229,199.456,102.552)">
                        <g transform="matrix(12,0,0,12,287.156,153.626)">
                            <path d="M0.361,-0L0.187,-0L0.097,-0.7L0.259,-0.7L0.306,-0.216C0.307,-0.204 0.308,-0.193 0.308,-0.181C0.308,-0.169 0.307,-0.158 0.305,-0.148L0.309,-0.148C0.312,-0.157 0.316,-0.168 0.321,-0.18C0.325,-0.191 0.331,-0.204 0.338,-0.218L0.581,-0.7L0.755,-0.7L0.361,-0Z" style="fill:white;fill-rule:nonzero;"/>
                        </g>
                        <path d="M291.338,149.259L290.937,145.161C290.904,144.822 290.611,144.562 290.261,144.562L288.322,144.562C288.127,144.562 287.941,144.644 287.813,144.786C287.684,144.928 287.624,145.118 287.648,145.306L288.726,153.708C288.769,154.039 289.057,154.288 289.4,154.288L291.486,154.288C291.734,154.288 291.962,154.156 292.081,153.944L296.809,145.542C296.925,145.337 296.921,145.088 296.798,144.887C296.676,144.686 296.454,144.562 296.214,144.562L294.128,144.562C293.869,144.562 293.633,144.706 293.519,144.932L291.338,149.259ZM291.486,153.626L289.4,153.626L288.322,145.224L290.261,145.224L290.829,151.036C290.841,151.173 290.848,151.313 290.85,151.455C290.852,151.598 290.841,151.73 290.818,151.851L290.865,151.851C290.9,151.738 290.946,151.611 291.002,151.47C291.059,151.329 291.128,151.177 291.21,151.013L294.128,145.224L296.214,145.224L291.486,153.626Z" style="fill:rgb(255,10,0);"/>
                    </g>
                    <g transform="matrix(1.61411,0,-0.374684,1.61411,208.065,68.5859)">
                        <g transform="matrix(12,0,0,12,287.156,153.626)">
                            <path d="M0.012,-0L0.172,-0L0.253,-0.126L0.256,-0.126L0.3,-0L0.461,-0L0.351,-0.212L0.518,-0.42L0.357,-0.42L0.28,-0.3L0.277,-0.3L0.234,-0.42L0.073,-0.42L0.171,-0.212L0.012,-0Z" style="fill:white;fill-rule:nonzero;"/>
                        </g>
                        <g transform="matrix(12,0,0,12,292.772,153.626)">
                            <path d="M0.042,-0L0.487,-0L0.505,-0.125L0.292,-0.125L0.449,-0.254C0.512,-0.306 0.544,-0.368 0.544,-0.441C0.544,-0.49 0.525,-0.531 0.488,-0.564C0.451,-0.597 0.398,-0.613 0.331,-0.613C0.305,-0.613 0.279,-0.61 0.254,-0.605C0.228,-0.599 0.207,-0.593 0.19,-0.586C0.173,-0.579 0.157,-0.57 0.142,-0.561C0.127,-0.552 0.117,-0.545 0.112,-0.542C0.107,-0.538 0.104,-0.535 0.101,-0.533L0.161,-0.417C0.21,-0.453 0.254,-0.471 0.291,-0.471C0.314,-0.471 0.332,-0.465 0.345,-0.453C0.358,-0.441 0.364,-0.426 0.364,-0.408C0.364,-0.389 0.36,-0.373 0.352,-0.36C0.343,-0.347 0.329,-0.333 0.309,-0.316L0.057,-0.105L0.042,-0Z" style="fill:white;fill-rule:nonzero;"/>
                        </g>
                    </g>
                </g>
            </g>
        </g>
    </g>
</svg>
