<?xml version="1.0" encoding="UTF-8" standalone="no"?>
<!DOCTYPE svg PUBLIC "-//W3C//DTD SVG 1.1//EN" "http://www.w3.org/Graphics/SVG/1.1/DTD/svg11.dtd">
<svg width="100%" height="100%" viewBox="0 0 95 69" version="1.1" xmlns="http://www.w3.org/2000/svg" xmlns:xlink="http://www.w3.org/1999/xlink" xml:space="preserve" xmlns:serif="http://www.serif.com/" style="fill-rule:evenodd;clip-rule:evenodd;stroke-linecap:round;stroke-linejoin:round;">
    <g id="Artboard1" transform="matrix(0.97294,0,0,0.963813,-25.384,-41.4699)">
        <rect x="26.09" y="43.027" width="97.128" height="70.886" style="fill:none;"/>
        <g transform="matrix(1.97634,0,0,2.04733,-1164.87,-488.81)">
            <g id="Icons">
                <g id="Vx3">
                    <g transform="matrix(1,0,0.0626287,1.06046,275.586,122.48)">
                        <path d="M366,131L333,131L320,150L354,150L366,131Z" style="fill:rgb(238,0,0);stroke:rgb(255,89,82);stroke-width:2.66px;"/>
                    </g>
                    <g transform="matrix(1.49229,0,0,1.49229,202.013,63.1122)">
                        <g transform="matrix(12,0,0,12,287.156,153.626)">
                            <path d="M0.361,-0L0.187,-0L0.097,-0.7L0.259,-0.7L0.306,-0.216C0.307,-0.204 0.308,-0.193 0.308,-0.181C0.308,-0.169 0.307,-0.158 0.305,-0.148L0.309,-0.148C0.312,-0.157 0.316,-0.168 0.321,-0.18C0.325,-0.191 0.331,-0.204 0.338,-0.218L0.581,-0.7L0.755,-0.7L0.361,-0Z" style="fill:white;fill-rule:nonzero;"/>
                        </g>
                        <path d="M291.327,149.319L290.92,145.163C290.888,144.832 290.602,144.579 290.261,144.579L288.322,144.579C288.132,144.579 287.951,144.658 287.825,144.797C287.7,144.936 287.641,145.12 287.665,145.304L288.743,153.706C288.784,154.029 289.066,154.271 289.4,154.271L291.486,154.271C291.727,154.271 291.95,154.143 292.066,153.936L296.795,145.534C296.907,145.334 296.903,145.091 296.784,144.895C296.665,144.699 296.448,144.579 296.214,144.579L294.128,144.579C293.876,144.579 293.645,144.719 293.534,144.939L291.327,149.319ZM291.486,153.626L289.4,153.626L288.322,145.224L290.261,145.224L290.829,151.036C290.841,151.173 290.848,151.313 290.85,151.455C290.852,151.598 290.841,151.73 290.818,151.851L290.865,151.851C290.9,151.738 290.946,151.611 291.002,151.47C291.059,151.329 291.128,151.177 291.21,151.013L294.128,145.224L296.214,145.224L291.486,153.626Z" style="fill:rgb(255,10,0);"/>
                    </g>
                    <g transform="matrix(1.61411,0,-0.374684,1.61411,209.924,29.5409)">
                        <g transform="matrix(12,0,0,12,287.156,153.626)">
                            <path d="M0.012,-0L0.172,-0L0.253,-0.126L0.256,-0.126L0.3,-0L0.461,-0L0.351,-0.212L0.518,-0.42L0.357,-0.42L0.28,-0.3L0.277,-0.3L0.234,-0.42L0.073,-0.42L0.171,-0.212L0.012,-0Z" style="fill:white;fill-rule:nonzero;"/>
                        </g>
                        <g transform="matrix(12,0,0,12,292.772,153.626)">
                            <path d="M0.266,-0.26C0.326,-0.26 0.356,-0.24 0.356,-0.2C0.356,-0.176 0.347,-0.156 0.328,-0.141C0.309,-0.126 0.282,-0.118 0.247,-0.118C0.224,-0.118 0.202,-0.123 0.18,-0.134C0.157,-0.144 0.143,-0.152 0.136,-0.159C0.129,-0.165 0.124,-0.17 0.12,-0.174L0.031,-0.068L0.038,-0.06C0.042,-0.054 0.049,-0.047 0.06,-0.039C0.071,-0.031 0.083,-0.023 0.098,-0.015C0.112,-0.007 0.131,-0 0.155,0.006C0.178,0.011 0.204,0.014 0.231,0.014C0.322,0.014 0.392,-0.008 0.441,-0.052C0.49,-0.096 0.514,-0.15 0.514,-0.214C0.514,-0.295 0.473,-0.345 0.39,-0.363L0.533,-0.497L0.547,-0.6L0.131,-0.6L0.114,-0.475L0.339,-0.475L0.202,-0.347L0.189,-0.26L0.266,-0.26Z" style="fill:white;fill-rule:nonzero;"/>
                        </g>
                    </g>
                </g>
            </g>
        </g>
    </g>
</svg>
